<svg width="22" height="24" viewBox="0 0 22 24" fill="none" xmlns="http://www.w3.org/2000/svg">
<path d="M19.0408 5.25H2.72012C2.34837 5.25 2.04009 4.91 2.04009 4.5C2.04009 4.09 2.34837 3.75 2.72012 3.75H19.0408C19.4126 3.75 19.7208 4.09 19.7208 4.5C19.7208 4.91 19.4126 5.25 19.0408 5.25Z" fill="#4F4F4F"/>
<path d="M19.0408 12.5H2.72012C2.34837 12.5 2.04009 12.16 2.04009 11.75C2.04009 11.34 2.34837 11 2.72012 11H19.0408C19.4126 11 19.7208 11.34 19.7208 11.75C19.7208 12.16 19.4126 12.5 19.0408 12.5Z" fill="#4F4F4F"/>
<path d="M19.0408 19.5H2.72012C2.34837 19.5 2.04009 19.16 2.04009 18.75C2.04009 18.34 2.34837 18 2.72012 18H19.0408C19.4126 18 19.7208 18.34 19.7208 18.75C19.7208 19.16 19.4126 19.5 19.0408 19.5Z" fill="#4F4F4F"/>
</svg>
