<svg width="23" height="24" viewBox="0 0 23 24" fill="none" xmlns="http://www.w3.org/2000/svg">
<path d="M11.8023 20.5304C9.68963 20.5304 7.57701 20.1604 5.57319 19.4204C4.81156 19.1304 4.23126 18.5404 3.97739 17.7704C3.71444 17.0004 3.80511 16.1504 4.2222 15.3904L5.26491 13.4804C5.48252 13.0804 5.68199 12.2804 5.68199 11.8104V8.92041C5.68199 5.20041 8.42931 2.17041 11.8023 2.17041C15.1752 2.17041 17.9225 5.20041 17.9225 8.92041V11.8104C17.9225 12.2704 18.122 13.0804 18.3396 13.4904L19.3732 15.3904C19.7631 16.1104 19.8357 16.9804 19.5727 17.7704C19.4443 18.1569 19.2381 18.5062 18.9695 18.792C18.7009 19.0778 18.377 19.2927 18.0223 19.4204C16.0275 20.1604 13.9149 20.5304 11.8023 20.5304V20.5304ZM11.8023 3.67041C9.18188 3.67041 7.04205 6.02041 7.04205 8.92041V11.8104C7.04205 12.5404 6.77004 13.6204 6.43456 14.2504L5.39185 16.1604C5.19237 16.5304 5.13797 16.9204 5.25584 17.2504C5.36465 17.5904 5.63666 17.8504 6.00841 17.9904C9.76979 19.3904 13.8438 19.3904 17.6052 17.9904C17.9316 17.8704 18.1855 17.6004 18.3033 17.2404C18.4212 16.8804 18.394 16.4904 18.2127 16.1604L17.17 14.2504C16.8254 13.6004 16.5625 12.5304 16.5625 11.8004V8.92041C16.5625 6.02041 14.4317 3.67041 11.8023 3.67041V3.67041Z" fill="#4F4F4F"/>
<path d="M13.4887 3.94019C13.4253 3.94019 13.3618 3.93019 13.2983 3.91019C13.0354 3.83019 12.7815 3.77019 12.5367 3.73019C11.766 3.62019 11.0225 3.68019 10.3243 3.91019C10.0705 4.00019 9.79845 3.91019 9.62617 3.70019C9.54033 3.5967 9.48285 3.4685 9.46038 3.33045C9.43791 3.1924 9.45138 3.05015 9.49923 2.92019C9.67976 2.40623 9.99741 1.96476 10.4102 1.65409C10.823 1.34343 11.3116 1.17818 11.8113 1.18019C12.845 1.18019 13.7517 1.86019 14.1234 2.92019C14.2141 3.19019 14.1688 3.49019 13.9965 3.70019C13.8605 3.86019 13.6701 3.94019 13.4887 3.94019V3.94019Z" fill="#4F4F4F"/>
<path d="M11.8024 22.8101C10.9048 22.8101 10.0343 22.4101 9.39963 21.7101C8.76493 21.0101 8.40225 20.0501 8.40225 19.0601H9.76231C9.76231 19.6501 9.97992 20.2301 10.3607 20.6501C10.7416 21.0701 11.2674 21.3101 11.8024 21.3101C12.9267 21.3101 13.8425 20.3001 13.8425 19.0601H15.2025C15.2025 21.1301 13.6793 22.8101 11.8024 22.8101Z" fill="#4F4F4F"/>
</svg>
